<?xml version="1.0" encoding="utf-8"?>
<svg xmlns="http://www.w3.org/2000/svg" viewBox="0 0 500 500" xmlns:bx="https://boxy-svg.com" width="500px" height="500px"><defs><linearGradient id="color-0" gradientUnits="userSpaceOnUse" gradientTransform="matrix(1.743002, 0, 0, 1.743002, 453.197397, -3.162562)"><stop style="stop-color: rgb(165, 237, 159);"/></linearGradient><linearGradient id="color-1" gradientUnits="userSpaceOnUse" gradientTransform="matrix(1, 0, 0, 1, 6.29529, 20)"><stop style="stop-color: rgb(126, 215, 119);"/></linearGradient></defs><g transform="matrix(1, 0, 0, 1, -14.40535, -6.770363)" id="object-0"><g style="" transform="matrix(1, 0, 0, 1, 3.577872, -86.76339)"><rect width="257" height="216.686" x="202.857" y="120.558" rx="1.5" style="stroke-width: 26; stroke: rgb(201, 251, 196); fill-rule: nonzero; fill: rgb(216, 255, 213); opacity: 0.64;" transform="matrix(0.88294, 0.469487, -0.469487, 0.88294, 132.060254, -90.921077)"/><rect width="257" height="216.686" x="118.883" y="184.537" rx="1.5" style="stroke-width: 26; stroke: rgb(201, 251, 196); fill-rule: nonzero; fill: rgb(216, 255, 213); opacity: 0.78;" transform="matrix(0.963508, 0.267678, -0.267678, 0.963508, 87.424809, -55.531413)"/><rect width="257" height="216.686" x="40.169" y="243.572" rx="1.5" style="stroke-width: 26px; stroke: url(&quot;#color-0&quot;); fill: rgb(216, 255, 213);"/><path d="M 188.826 311.601 L 188.826 331.758 L 168.669 331.758 L 168.669 351.915 L 128.355 351.915 L 128.355 372.072 L 108.198 372.072 L 108.198 392.229 L 88.042 392.229 L 88.042 412.386 L 249.296 412.386 L 249.296 372.072 L 229.14 372.072 L 229.14 331.758 L 208.983 331.758 L 208.983 311.601 L 188.826 311.601 Z" style="stroke-width: 22px; paint-order: stroke; fill: url(&quot;#color-0&quot;); stroke: rgb(156, 221, 151);"/></g><path d="M 390.493 302.791 L 413.837 333.916 L 452.744 333.916 C 469.956 333.916 483.869 347.86 483.869 365.041 L 483.869 458.415 C 483.869 475.597 469.956 489.541 452.744 489.541 L 265.994 489.541 C 248.813 489.541 234.869 475.597 234.869 458.415 L 234.869 365.041 C 234.869 347.86 248.813 333.916 265.994 333.916 L 304.899 333.916 L 328.243 302.791 L 390.493 302.791 Z M 318.937 388.385 C 300.978 419.509 323.45 458.415 359.368 458.415 C 376.052 458.415 391.459 449.513 399.801 435.073 C 417.79 403.946 395.318 365.041 359.368 365.041 C 342.686 365.041 327.279 373.942 318.937 388.385 Z" style="stroke-width: 10px; fill: url(&quot;#color-1&quot;);"/></g><g transform="matrix(1, 0, 0, 1, 208.661346, -169.870087)"/></svg>